inDegrees=yes
name=ik_lifting_orientations
DataType=double
version=3
OpenSimVersion=4.5-2024-01-10-34fd6af
endheader
time	pelvis_tilt	pelvis_list	pelvis_rotation	pelvis_tx	pelvis_ty	pelvis_tz	hip_flexion_r	hip_adduction_r	hip_rotation_r	knee_angle_r	knee_angle_r_beta	ankle_angle_r	subtalar_angle_r	mtp_angle_r	hip_flexion_l	hip_adduction_l	hip_rotation_l	knee_angle_l	knee_angle_l_beta	ankle_angle_l	subtalar_angle_l	mtp_angle_l	lumbar_extension	lumbar_bending	lumbar_rotation	arm_flex_r	arm_add_r	arm_rot_r	elbow_flex_r	pro_sup_r	wrist_flex_r	wrist_dev_r	arm_flex_l	arm_add_l	arm_rot_l	elbow_flex_l	pro_sup_l	wrist_flex_l	wrist_dev_l
1.55	-3.036941063691057	-27.3782127051033	-143.0668202245797	0	0.9399999998679526	0	45.40171323775002	-10.19046505613378	0	59.82649357935755	1.044169292883037	-5.0733976400174	0	0	45.40171323775002	-10.19046505613378	0	59.82649357935755	1.044169292883037	-5.0733976400174	0	0	-83.51254958339554	-47.2671644063839	-9.427446251055425	55.28765982159821	12.96712765379383	20.07870439181776	44.35506488893097	1.786636563462441	0	0	0	-12.27763746610478	0	88.24715208257616	1.786636563462441	0	0
1.56	-3.501395614882099	-25.09716152061787	-143.9758999384876	0	0.9399999998679526	0	45.3896665076652	-10.17713331018228	0	59.83172289729997	1.044260561698765	-5.067301807299684	0	0	45.3896665076652	-10.17713331018228	0	59.83172289729997	1.044260561698765	-5.067301807299684	0	0	-77.68307364679863	-47.39735217097926	-4.379365041110114	53.60261924825283	12.97515417967998	20.15849148090602	45.02191278248729	1.745367404835331	0	0	0	-12.32776110616527	0	88.28763648585306	1.745367404835331	0	0
1.57	-3.651777343338599	-22.83094541730796	-144.1762023499043	0	0.9399999998679526	0	45.38896359779918	-10.17602378813252	0	59.83196176560974	1.04426473073725	-5.066753113440718	0	0	45.38896359779918	-10.17602378813252	0	59.83196176560974	1.04426473073725	-5.066753113440718	0	0	-73.38463009015373	-46.90548461062539	-0.8518177215491605	53.00047038597397	13.2263807660012	20.07272178494813	45.5505748574835	1.743174002705682	0	0	0	-12.33023424333499	0	88.28978816620419	1.743174002705682	0	0
1.58	-3.662414254500289	-20.68735931814749	-143.6789509100926	0	0.9399999998679526	0	45.37665417892209	-10.16311301037756	0	59.83731633484803	1.044358185600484	-5.060958106028669	0	0	45.37665417892209	-10.16311301037756	0	59.83731633484803	1.044358185600484	-5.060958106028669	0	0	-67.96481233040525	-45.17638779719227	3.01020392187711	51.06704325740426	13.31382513859223	20.44413203112045	46.05545551753553	1.700634250202755	0	0	0	-12.38220560860779	0	88.33151902276475	1.700634250202755	0	0
1.59	-3.67232814880457	-18.47994020634086	-143.2511517771019	0	0.9399999998679526	0	45.36511191150629	-10.15148045706884	0	59.84232661156151	1.04444563142557	-5.055806562445516	0	0	45.36511191150629	-10.15148045706884	0	59.84232661156151	1.04444563142557	-5.055806562445516	0	0	-62.5941452849321	-43.23748745803744	6.68034268441407	49.03875263680219	13.03202907223492	20.8681775998892	46.66342092595135	1.660480437464426	0	0	0	-12.43148083778216	0	88.37090932196827	1.660480437464426	0	0
1.6	-3.698208448930508	-15.84500323177783	-142.8643216500599	0	0.9399999998679526	0	45.35340360862362	-10.1402821758147	0	59.84741957902002	1.044534520476418	-5.050934528333935	0	0	45.35340360862362	-10.1402821758147	0	59.84741957902002	1.044534520476418	-5.050934528333935	0	0	-57.25380272493447	-40.91549633569291	10.4199051316432	47.30582001423598	12.29407798094699	21.17315883627068	47.29675926171755	1.61939353916149	0	0	0	-12.4821975767915	0	88.41121498178977	1.61939353916149	0	0
1.61	-3.602018900790324	-13.07829451689571	-141.9623439293501	0	0.9399999998679526	0	45.34193315488945	-10.12973382076603	0	59.85237275198136	1.044620969653014	-5.046412476832039	0	0	45.34193315488945	-10.12973382076603	0	59.85237275198136	1.044620969653014	-5.046412476832039	0	0	-52.20940625373557	-37.99123849222747	13.36535584463981	45.56585552741408	11.69273530378591	21.59026389288586	47.80341538416204	1.578916556054244	0	0	0	-12.53233634806614	0	88.45092233307443	1.578916556054244	0	0
1.62	-3.442857296173564	-10.644570727332	-140.5795210356612	0	0.9399999998679526	0	45.3341303592485	-10.12273466833244	0	59.85572583781823	1.04467949204097	-5.043434486398316	0	0	45.3341303592485	-10.12273466833244	0	59.85572583781823	1.04467949204097	-5.043434486398316	0	0	-47.94898291096413	-34.53895597061085	14.92761228168019	43.68164577339154	11.08632934948361	22.59564287098544	48.18790976820745	1.551258300231965	0	0	0	-12.56670129263149	0	88.47805469853608	1.551258300231965	0	0
1.63	-3.233892493992473	-8.361126563226636	-141.2344712124525	0	0.9399999998679526	0	45.3264644013604	-10.11615352640854	0	59.85905169776723	1.04473753924754	-5.040669795134173	0	0	45.3264644013604	-10.11615352640854	0	59.85905169776723	1.04473753924754	-5.040669795134173	0	0	-43.08433599910055	-32.52173629133591	17.68637680328652	41.61606206475614	10.41268629485275	23.71386577121739	48.72119013399583	1.523851251379448	0	0	0	-12.60096241496369	0	88.50494064384083	1.523851251379448	0	0
1.64	-2.998563247570487	-6.087327248366153	-141.9021250196562	0	0.9399999998679526	0	45.31692653444347	-10.10830677313014	0	59.86320120428259	1.044809961798566	-5.037420618897193	0	0	45.31692653444347	-10.10830677313014	0	59.86320120428259	1.044809961798566	-5.037420618897193	0	0	-38.64810351518729	-30.51789767310136	20.13204764712916	39.68596777453305	9.96054448478403	24.67218820918462	49.19339359615202	1.489508695872434	0	0	0	-12.64410036424725	0	88.53863023732471	1.489508695872434	0	0
1.65	-2.733441467111381	-3.973671524951999	-137.1147038965528	0	0.9399999998679526	0	45.30255053230879	-10.09714022472563	0	59.86945041435509	1.04491903108998	-5.032893766677402	0	0	45.30255053230879	-10.09714022472563	0	59.86945041435509	1.04491903108998	-5.032893766677402	0	0	-38.57062600137197	-22.46312593921945	13.16918593347468	37.96800682288475	8.897912277307247	30.30131095346029	49.57797462518891	1.437300799320347	0	0	0	-12.71004375773419	0	88.58984551041155	1.437300799320347	0	0
1.66	-2.504821246610111	-2.372896873228981	-131.3378995336207	0	0.9399999998679526	0	45.29716052483831	-10.09305675017343	0	59.8717558283487	1.04495926815479	-5.031252885380476	0	0	45.29716052483831	-10.09305675017343	0	59.8717558283487	1.04495926815479	-5.031252885380476	0	0	-36.4276611234132	-17.30256660072468	9.79815886657987	35.97942004225798	8.007630950622982	30.7276599863211	49.9424381835936	1.41765780581134	0	0	0	-12.73490646018246	0	88.60911503564847	1.41765780581134	0	0
1.67	-2.354431792958624	-1.269682275256753	-124.6935553278603	0	0.9399999998679526	0	45.29142276003006	-10.08887818739305	0	59.87422375772135	1.045002341648049	-5.029595185603839	0	0	45.29142276003006	-10.08887818739305	0	59.87422375772135	1.045002341648049	-5.029595185603839	0	0	-34.5429393840828	-12.03973512171215	5.030613794516693	33.80499804781816	7.099662429208719	31.32055051853142	50.30773005799261	1.396602982233494	0	0	0	-12.76168254860504	0	88.62976955309499	1.396602982233494	0	0
1.68	-2.174589516943151	-0.1956634591004536	-125.3014641459972	0	0.9399999998679526	0	45.28802312715715	-10.08642903398464	0	59.87569509177167	1.045028021271624	-5.028623250206437	0	0	45.28802312715715	-10.08642903398464	0	59.87569509177167	1.045028021271624	-5.028623250206437	0	0	-31.28420011192276	-11.26722298360042	6.258397153087913	31.72713720073759	6.242139605497024	31.69235626122619	50.7454406886396	1.384076971329922	0	0	0	-12.77766443972045	0	88.64205741433497	1.384076971329922	0	0
1.69	-2.05092832094272	0.6075152658489564	-126.0615249164652	0	0.9399999998679526	0	45.28550357027948	-10.08463153757643	0	59.87678304561317	1.045047009648268	-5.027912326163142	0	0	45.28550357027948	-10.08463153757643	0	59.87678304561317	1.045047009648268	-5.027912326163142	0	0	-28.24800668072218	-10.38765106296853	7.31463801696793	29.53069611394545	5.148830754159365	32.19416725169089	51.30682313970509	1.374779035066866	0	0	0	-12.78953991661789	0	88.65117857484691	1.374779035066866	0	0
1.7	-2.014928910911192	0.984363836387537	-126.7500087832783	0	0.9399999998679526	0	45.28324871275487	-10.08303478142534	0	59.87775453313894	1.045063965304235	-5.027282540164763	0	0	45.28324871275487	-10.08303478142534	0	59.87775453313894	1.045063965304235	-5.027282540164763	0	0	-25.48144034854915	-9.652098656282709	8.328690661737934	27.02475065158084	3.947876947801292	32.28587527995204	52.04124806243045	1.366448967742528	0	0	0	-12.80018643369625	0	88.65935026815104	1.366448967742528	0	0
1.71	-2.047225584293612	1.055118976555423	-127.3042210098476	0	0.9399999998679526	0	45.28104456030172	-10.08149153834924	0	59.8787041416334	1.045080539099068	-5.026676223240844	0	0	45.28104456030172	-10.08149153834924	0	59.8787041416334	1.045080539099068	-5.026676223240844	0	0	-23.00009577872675	-8.899477843095447	9.069367842076772	24.3241734198287	2.658883784975906	32.38005918293042	52.8220516806622	1.358291021120718	0	0	0	-12.81062602877128	0	88.66735311363011	1.358291021120718	0	0
1.72	-2.116259304110436	1.010284590647346	-127.7467319920609	0	0.9399999998679526	0	45.28091239593822	-10.08135763412114	0	59.8787489478189	1.04508132111453	-5.026619050145648	0	0	45.28091239593822	-10.08135763412114	0	59.8787489478189	1.04508132111453	-5.026619050145648	0	0	-20.88972918511836	-8.22675251288705	9.820513856367485	21.71753475160578	1.201719708708742	32.23498432699714	53.85335519618833	1.357846549665354	0	0	0	-12.81115321048875	0	88.66778913321077	1.357846549665354	0	0
1.73	-2.20046231104845	0.8671099991952904	-128.2091876946645	0	0.9399999998679526	0	45.28080476147746	-10.08124881210642	0	59.87878547203091	1.045081958582286	-5.026572616694909	0	0	45.28080476147746	-10.08124881210642	0	59.87878547203091	1.045081958582286	-5.026572616694909	0	0	-18.85916424248435	-7.257091643013391	10.21200427061711	18.88731883511948	-0.4844325338232152	32.40660189553926	55.3500437568252	1.357484408825187	0	0	0	-12.81158289284045	0	88.66814438774561	1.357484408825187	0	0
1.74	-2.281261543351417	0.7187618548853604	-128.6710778152826	0	0.9399999998679526	0	45.28071700199018	-10.08116037018718	0	59.87881530896288	1.045082479334988	-5.026534911002391	0	0	45.28071700199018	-10.08116037018718	0	59.87881530896288	1.045082479334988	-5.026534911002391	0	0	-16.86303304517656	-6.280989559332369	10.56432466005625	15.92887749181687	-2.17125379101751	32.37295373842785	56.74674976352309	1.35718889634504	0	0	0	-12.81193375442501	0	88.66843428090402	1.35718889634504	0	0
